
<svg width="78px" height="50px" viewBox="0 0 78 50" version="1.1" xmlns="http://www.w3.org/2000/svg" xmlns:xlink="http://www.w3.org/1999/xlink">
    <!-- Generator: Sketch 51.2 (57519) - http://www.bohemiancoding.com/sketch -->
    <desc>Created with Sketch.</desc>
    <defs></defs>
    <g id="Page-1" stroke="none" stroke-width="1" fill="none" fill-rule="evenodd">
        <g id="Desktop-HD" transform="translate(-228.000000, -135.000000)">
            <g id="Group" transform="translate(228.000000, 135.000000)">
                <rect id="Rectangle" stroke="#FFFFFF" stroke-width="5" fill-rule="nonzero" x="2.5" y="2.5" width="73" height="45" rx="8"></rect>
                <path d="M32.956,14.566 L24.996,14.566 L24.996,39.246 C24.996,40.3505695 24.1005695,41.246 22.996,41.246 L21.476,41.246 C20.3714305,41.246 19.476,40.3505695 19.476,39.246 L19.476,14.566 L12,14.566 C10.8954305,14.566 10,13.6705695 10,12.566 L10,11.046 C10,9.9414305 10.8954305,9.046 12,9.046 L35.441617,9.046 C35.6128571,9.0157689 35.7890871,9 35.969,9 L37.8912544,9 C38.571149,9 39.2044788,9.34540087 39.5726466,9.9169856 L49.056,24.64 L58.5849134,9.91349744 C58.9534664,9.34391555 59.5856329,9 60.2640537,9 L63.202,9 C64.3065695,9 65.202,9.8954305 65.202,11 L65.202,39.2 C65.202,40.3045695 64.3065695,41.2 63.202,41.2 L61.682,41.2 C60.5774305,41.2 59.682,40.3045695 59.682,39.2 L59.682,18.384 L50.738785,32.2053322 C50.1387262,33.1326958 48.9005057,33.3980288 47.9731422,32.79797 C47.7348382,32.6437733 47.532085,32.4406188 47.3783597,32.2020105 L38.476,18.384 L38.476,39.2 C38.476,40.3045695 37.5805695,41.2 36.476,41.2 L34.956,41.2 C33.8514305,41.2 32.956,40.3045695 32.956,39.2 L32.956,14.566 Z" id="TM" fill="#FFFFFF"></path>
            </g>
        </g>
    </g>
</svg>